<svg xmlns="http://www.w3.org/2000/svg" viewBox="0 0 64 64" role="img" aria-label="rtrash mark">
  <defs>
    <linearGradient id="bg" x1="8" y1="4" x2="56" y2="60" gradientUnits="userSpaceOnUse">
      <stop stop-color="#0D9488"/>
      <stop offset="1" stop-color="#0F766E"/>
    </linearGradient>
    <linearGradient id="can" x1="20" y1="22" x2="44" y2="54" gradientUnits="userSpaceOnUse">
      <stop stop-color="#F0FDFA"/>
      <stop offset="1" stop-color="#CCFBF1"/>
    </linearGradient>
  </defs>
  <rect width="64" height="64" rx="14" fill="url(#bg)"/>
  <path d="M14 8c8-4 28-4 36 0 2 1 3 3 2 5-4 8-32 8-40 0-1-2 0-4 2-5z" fill="#5EEAD4" opacity=".35"/>
  <rect x="27" y="12" width="10" height="5" rx="2.5" fill="#ECFDF5"/>
  <path d="M16 20h32a2 2 0 0 1 0 4H16a2 2 0 0 1 0-4z" fill="#ECFDF5"/>
  <path d="M20 24h24l-2.2 28.5A5 5 0 0 1 36.9 57H27.1a5 5 0 0 1-4.9-4.5L20 24z" fill="url(#can)"/>
  <path d="M38 34c0 6.6-5.4 12-12 12-4.4 0-8.2-2.4-10.2-5.9" fill="none" stroke="#0F766E" stroke-width="2.8" stroke-linecap="round"/>
  <path d="M16.5 38.5l-.2-5.2 5.1 1.4" fill="none" stroke="#0F766E" stroke-width="2.8" stroke-linecap="round" stroke-linejoin="round"/>
  <path d="M28 30v16M36 30v16" stroke="#0F766E" stroke-width="2.4" stroke-linecap="round" opacity=".55"/>
</svg>
